<svg id="visual" viewBox="0 0 900 600" width="900" height="600" xmlns="http://www.w3.org/2000/svg" xmlns:xlink="http://www.w3.org/1999/xlink" version="1.1"><rect x="0" y="0" width="900" height="600" fill="#001220"></rect><defs><linearGradient id="grad1_0" x1="33.3%" y1="100%" x2="100%" y2="0%"><stop offset="20%" stop-color="#001220" stop-opacity="1"></stop><stop offset="80%" stop-color="#001220" stop-opacity="1"></stop></linearGradient></defs><defs><linearGradient id="grad2_0" x1="0%" y1="100%" x2="66.7%" y2="0%"><stop offset="20%" stop-color="#001220" stop-opacity="1"></stop><stop offset="80%" stop-color="#001220" stop-opacity="1"></stop></linearGradient></defs><g transform="translate(900, 600)"><path d="M-540.8 0C-534 -32.8 -527.2 -65.6 -527.7 -105C-528.1 -144.3 -535.7 -190.3 -499.7 -207C-463.6 -223.6 -383.8 -210.8 -367.5 -245.6C-351.2 -280.3 -398.4 -362.5 -379 -379C-359.6 -395.6 -273.5 -346.5 -231.7 -346.7C-189.8 -347 -192.1 -396.6 -176.8 -426.8C-161.5 -457 -128.6 -467.8 -96.2 -483.5C-63.8 -499.3 -31.9 -520.1 0 -540.8L0 0Z" fill="#FBAE3C"></path></g><g transform="translate(0, 0)"><path d="M540.8 0C536.7 33.4 532.5 66.8 530.4 105.5C528.4 144.2 528.3 188.1 486 201.3C443.6 214.5 358.9 196.9 344.2 230C329.6 263.2 384.9 347 376.9 376.9C368.8 406.7 297.4 382.5 252.2 377.5C207.1 372.5 188.3 386.6 166.1 401C143.9 415.3 118.4 429.8 90.1 453.1C61.9 476.5 30.9 508.6 0 540.8L0 0Z" fill="#FBAE3C"></path></g></svg>